<svg width="256" height="256" viewBox="0 0 256 256" fill="none" xmlns="http://www.w3.org/2000/svg">
<g clip-path="url(#clip0_10_102)">
<path d="M256 0H0V256H256V0Z" fill="#784496"/>
<path d="M97.456 127.695C111.815 127.695 123.456 116.054 123.456 101.695C123.456 87.3356 111.815 75.695 97.456 75.695C83.0966 75.695 71.456 87.3356 71.456 101.695C71.456 116.054 83.0966 127.695 97.456 127.695Z" fill="white"/>
<path d="M155.265 126.99C169.624 126.99 181.265 115.349 181.265 100.99C181.265 86.6306 169.624 74.99 155.265 74.99C140.906 74.99 129.265 86.6306 129.265 100.99C129.265 115.349 140.906 126.99 155.265 126.99Z" fill="white"/>
<path d="M108.37 117.038C116.405 117.038 122.918 110.525 122.918 102.49C122.918 94.4554 116.405 87.942 108.37 87.942C100.335 87.942 93.822 94.4554 93.822 102.49C93.822 110.525 100.335 117.038 108.37 117.038Z" fill="#401E59"/>
<path d="M145.297 116.216C153.332 116.216 159.845 109.703 159.845 101.668C159.845 93.6334 153.332 87.12 145.297 87.12C137.262 87.12 130.749 93.6334 130.749 101.668C130.749 109.703 137.262 116.216 145.297 116.216Z" fill="#401E59"/>
<path d="M110 151L128 128L145 150" stroke="#401E59" stroke-width="5" stroke-miterlimit="10"/>
</g>
<defs>
<clipPath id="clip0_10_102">
<rect width="256" height="256" fill="white"/>
</clipPath>
</defs>
</svg>
