<svg id="Layer_1" data-name="Layer 1" xmlns="http://www.w3.org/2000/svg" viewBox="0 0 437.36 336.64"><path d="M433.22,28.58a24.12,24.12,0,0,1,24.09,24.09V284a24.12,24.12,0,0,1-24.09,24.09H80A24.11,24.11,0,0,1,56,284V52.67A24.11,24.11,0,0,1,80,28.58H433.22m0-18H80A42.21,42.21,0,0,0,38,52.67V284A42.21,42.21,0,0,0,80,326.05H433.22A42.21,42.21,0,0,0,475.31,284V52.67a42.21,42.21,0,0,0-42.09-42.09Z" transform="translate(-37.95 -10.58)" fill="#fff"/><rect x="139.59" y="315.46" width="158.18" height="21.17" fill="#fff"/><polygon points="293.95 155.64 166.16 84.75 166.16 226.53 293.95 155.64" fill="#fff"/></svg>
