<?xml version="1.0" standalone="no"?>
<!DOCTYPE svg PUBLIC "-//W3C//DTD SVG 20010904//EN"
 "http://www.w3.org/TR/2001/REC-SVG-20010904/DTD/svg10.dtd">
<svg version="1.0" xmlns="http://www.w3.org/2000/svg"
 width="151.000000pt" height="151.000000pt" viewBox="0 0 151.000000 151.000000"
 preserveAspectRatio="xMidYMid meet">
<metadata>
Created by potrace 1.14, written by Peter Selinger 2001-2017
</metadata>
<g transform="translate(0.000000,151.000000) scale(0.100000,-0.100000)"
fill="#000000" stroke="none">
<path d="M211 1252 c-14 -2 -35 -11 -48 -19 -52 -34 -53 -43 -53 -454 l0 -382
40 -39 41 -38 164 0 165 0 0 -30 0 -30 235 0 235 0 0 30 0 30 159 0 c148 0
160 1 192 23 59 40 59 37 59 445 0 412 0 416 -63 449 -29 16 -80 17 -567 18
-294 0 -546 -2 -559 -3z m1100 -67 c9 -5 20 -19 26 -30 5 -12 9 -165 9 -377
-1 -335 -2 -357 -20 -377 -19 -21 -24 -21 -571 -21 -544 0 -552 0 -571 21 -17
19 -18 43 -19 372 0 194 3 364 8 378 4 15 18 31 29 36 30 13 1088 11 1109 -2z"/>
<path d="M600 791 l0 -209 190 105 c105 58 189 107 188 108 -6 6 -369 205
-373 205 -3 0 -5 -94 -5 -209z"/>
</g>
</svg>
