<svg width="256" height="256" viewBox="0 0 256 256" fill="none" xmlns="http://www.w3.org/2000/svg">
<g clip-path="url(#clip0_10_13)">
<path d="M256 0H0V256H256V0Z" fill="#913514"/>
<path d="M193 108.5H66C59.3726 108.5 54 113.873 54 120.5V189.5C54 196.127 59.3726 201.5 66 201.5H193C199.627 201.5 205 196.127 205 189.5V120.5C205 113.873 199.627 108.5 193 108.5Z" fill="#F6BDAC"/>
<path d="M176 95.5H83C76.3726 95.5 71 100.873 71 107.5V146.5C71 153.127 76.3726 158.5 83 158.5H176C182.627 158.5 188 153.127 188 146.5V107.5C188 100.873 182.627 95.5 176 95.5Z" fill="#420E0A"/>
<path d="M149.5 170.596C149.5 180.859 141.18 189.18 130.916 189.18C120.652 189.18 112.332 180.86 112.332 170.596" stroke="#420E0A" stroke-width="7" stroke-miterlimit="10" stroke-linecap="round"/>
<path d="M131 151.5V186.5" stroke="#420E0A" stroke-width="4" stroke-miterlimit="10" stroke-linecap="round"/>
<path d="M167.583 103H91.031C88.5286 103 86.5 105.029 86.5 107.531C86.5 110.033 88.5286 112.062 91.031 112.062H167.583C170.085 112.062 172.114 110.033 172.114 107.531C172.114 105.029 170.085 103 167.583 103Z" fill="#913514"/>
<path d="M113.633 142V147.825" stroke="#913514" stroke-width="7" stroke-miterlimit="10" stroke-linecap="round"/>
<path d="M144.633 142V147.825" stroke="#913514" stroke-width="7" stroke-miterlimit="10" stroke-linecap="round"/>
<path d="M87 91C90.866 91 94 87.866 94 84C94 80.134 90.866 77 87 77C83.134 77 80 80.134 80 84C80 87.866 83.134 91 87 91Z" fill="#420E0A"/>
<path d="M172 91C175.866 91 179 87.866 179 84C179 80.134 175.866 77 172 77C168.134 77 165 80.134 165 84C165 87.866 168.134 91 172 91Z" fill="#420E0A"/>
</g>
<defs>
<clipPath id="clip0_10_13">
<rect width="256" height="256" fill="white"/>
</clipPath>
</defs>
</svg>
