<svg width="256" height="256" viewBox="0 0 256 256" fill="none" xmlns="http://www.w3.org/2000/svg">
<g clip-path="url(#clip0_10_25)">
<path d="M256 0H0V256H256V0Z" fill="#784496"/>
<path d="M140 157.5C140 164.818 134.068 170.75 126.75 170.75C119.432 170.75 113.5 164.818 113.5 157.5" stroke="#401E59" stroke-width="5" stroke-miterlimit="10" stroke-linecap="round"/>
<path d="M134.5 118C134.5 113.858 131.142 110.5 127 110.5C122.858 110.5 119.5 113.858 119.5 118" stroke="#401E59" stroke-width="5" stroke-miterlimit="10" stroke-linecap="round"/>
<path d="M44.228 102.174L89.766 154.384C94.569 153.213 99.02 151.153 102.942 148.388L109.038 143.071C110.905 141.067 112.565 138.868 113.981 136.505L65.227 80.608C55.659 84.685 48.061 92.48 44.228 102.174Z" fill="white"/>
<path d="M74.752 78.568L118 129C122.803 127.829 118.585 124.364 120 122L81 77C71.432 81.077 82 75 74.752 78.568Z" fill="white"/>
<path d="M80.5 155.5C102.039 155.5 119.5 138.039 119.5 116.5C119.5 94.9609 102.039 77.5 80.5 77.5C58.9609 77.5 41.5 94.9609 41.5 116.5C41.5 138.039 58.9609 155.5 80.5 155.5Z" stroke="#401E59" stroke-width="5" stroke-miterlimit="10"/>
<path d="M141.809 96.904L187.347 149.114C192.15 147.943 202.078 144.765 206 142L154 83C144.432 87.077 145.642 87.21 141.809 96.904Z" fill="white"/>
<path d="M173.5 155.5C195.039 155.5 212.5 138.039 212.5 116.5C212.5 94.9609 195.039 77.5 173.5 77.5C151.961 77.5 134.5 94.9609 134.5 116.5C134.5 138.039 151.961 155.5 173.5 155.5Z" stroke="#401E59" stroke-width="5" stroke-miterlimit="10"/>
</g>
<defs>
<clipPath id="clip0_10_25">
<rect width="256" height="256" fill="white"/>
</clipPath>
</defs>
</svg>
