<svg width="256" height="256" viewBox="0 0 256 256" fill="none" xmlns="http://www.w3.org/2000/svg">
<g clip-path="url(#clip0_10_35)">
<path d="M256 0H0V256H256V0Z" fill="#E86A5C"/>
<path d="M91 75H115" stroke="#420E0A" stroke-width="6" stroke-miterlimit="10" stroke-linecap="round"/>
<path d="M69.186 133.394C69.642 138.824 74.183 143 79.632 143H109.548C114.965 143 119.499 138.893 120.034 133.503L123.855 95H65.962L69.186 133.394Z" fill="#420E0A"/>
<path d="M132.649 95L135.873 133.394C136.329 138.824 140.87 143 146.319 143H176.235C181.652 143 186.186 138.893 186.721 133.503L190.542 95H132.649Z" fill="#420E0A"/>
<path d="M159.752 67.6C159.752 63.458 156.394 60.1 152.252 60.1C148.11 60.1 144.752 63.458 144.752 67.6" stroke="#420E0A" stroke-width="5" stroke-miterlimit="10" stroke-linecap="round"/>
<path d="M141.745 153.686C141.745 161.004 135.813 166.936 128.495 166.936C121.177 166.936 115.245 161.004 115.245 153.686" stroke="#420E0A" stroke-width="5" stroke-miterlimit="10" stroke-linecap="round"/>
<path d="M197.504 94.931H178.45C178.234 94.931 178.023 94.956 177.82 95H132.649L133.229 101.908C131.717 101.154 130.02 100.72 128.219 100.72C126.402 100.72 124.69 101.162 123.168 101.929L123.856 95.001H78.685C78.482 94.957 78.271 94.932 78.055 94.932H59.001C57.344 94.932 56.001 96.275 56.001 97.932C56.001 99.589 57.344 100.932 59.001 100.932H66.461L69.187 133.395C69.643 138.825 74.184 143.001 79.633 143.001H109.549C114.966 143.001 119.5 138.894 120.035 133.504L122.403 109.643C123.338 107.346 125.591 105.721 128.22 105.721C130.685 105.721 132.816 107.151 133.844 109.222L135.874 133.396C136.33 138.826 140.871 143.002 146.32 143.002H176.236C181.653 143.002 186.187 138.895 186.722 133.505L189.954 100.933H197.504C199.161 100.933 200.504 99.59 200.504 97.933C200.504 96.276 199.161 94.933 197.504 94.933V94.931Z" fill="#420E0A"/>
<path d="M105 143H88L68 95H85L105 143Z" fill="white"/>
<path d="M175 143H158L138 95H155L175 143Z" fill="white"/>
</g>
<defs>
<clipPath id="clip0_10_35">
<rect width="256" height="256" fill="white"/>
</clipPath>
</defs>
</svg>
