<svg width="257" height="257" viewBox="0 0 257 257" fill="none" xmlns="http://www.w3.org/2000/svg">
<g clip-path="url(#clip0_10_46)">
<path d="M256.5 0.5H0.5V256.5H256.5V0.5Z" fill="#A3EE87" stroke="#A3EE87" stroke-miterlimit="10"/>
<path d="M87.5 128.5C91.366 128.5 94.5 125.366 94.5 121.5C94.5 117.634 91.366 114.5 87.5 114.5C83.634 114.5 80.5 117.634 80.5 121.5C80.5 125.366 83.634 128.5 87.5 128.5Z" fill="#0E5B57"/>
<path d="M172.5 128.5C176.366 128.5 179.5 125.366 179.5 121.5C179.5 117.634 176.366 114.5 172.5 114.5C168.634 114.5 165.5 117.634 165.5 121.5C165.5 125.366 168.634 128.5 172.5 128.5Z" fill="#0E5B57"/>
<path d="M110.29 140.529C108.992 139.238 110.19 137.045 111.987 137.397C119.023 138.774 123.463 139.337 133.501 138.5C141.161 137.862 147.598 136.408 151.253 135.441C153.045 134.966 154.738 136.431 154.571 138.278C154.229 142.064 147.485 148.596 140.501 150.501C131.073 153.072 117.832 148.033 110.291 140.53L110.29 140.529Z" fill="#0E5B57"/>
</g>
<defs>
<clipPath id="clip0_10_46">
<rect width="257" height="257" fill="white"/>
</clipPath>
</defs>
</svg>
