<svg width="256" height="256" viewBox="0 0 256 256" fill="none" xmlns="http://www.w3.org/2000/svg">
<g clip-path="url(#clip0_10_61)">
<path d="M256 0H0V256H256V0Z" fill="#F6BDAC"/>
<path d="M169 138C169 157.33 168 197.25 134 197.25C103 197.25 99 157.33 99 138H169Z" fill="#913514"/>
<path d="M99.333 132C113.692 132 125.333 120.359 125.333 106C125.333 91.6406 113.692 80 99.333 80C84.9736 80 73.333 91.6406 73.333 106C73.333 120.359 84.9736 132 99.333 132Z" fill="white"/>
<path d="M155.667 119C170.026 119 181.667 107.359 181.667 93C181.667 78.6406 170.026 67 155.667 67C141.308 67 129.667 78.6406 129.667 93C129.667 107.359 141.308 119 155.667 119Z" fill="white"/>
<path d="M110.167 119C118.202 119 124.715 112.487 124.715 104.452C124.715 96.4174 118.202 89.904 110.167 89.904C102.132 89.904 95.619 96.4174 95.619 104.452C95.619 112.487 102.132 119 110.167 119Z" fill="#913514"/>
<path d="M146.071 110.334C154.106 110.334 160.619 103.821 160.619 95.786C160.619 87.7514 154.106 81.238 146.071 81.238C138.036 81.238 131.523 87.7514 131.523 95.786C131.523 103.821 138.036 110.334 146.071 110.334Z" fill="#913514"/>
<path d="M106 138C106 143.799 106.3 155.775 116.5 155.775C125.8 155.775 127 143.799 127 138H106Z" fill="white"/>
<path d="M137.606 138C137.606 143.799 137.906 155.775 148.106 155.775C157.406 155.775 158.606 143.799 158.606 138H137.606Z" fill="white"/>
<path d="M135.37 158C119.674 158 112.711 170.901 109.722 184.221C114.961 191.922 122.678 197.25 134 197.25C147.694 197.25 156.032 190.772 161.11 181.774C158.284 169.365 151.527 158 135.37 158Z" fill="#A33C1C"/>
</g>
<defs>
<clipPath id="clip0_10_61">
<rect width="256" height="256" fill="white"/>
</clipPath>
</defs>
</svg>
