<svg width="256" height="256" viewBox="0 0 256 256" fill="none" xmlns="http://www.w3.org/2000/svg">
<g clip-path="url(#clip0_10_85)">
<path d="M256 0H0V256H256V0Z" fill="#F9DA23"/>
<path d="M112.5 88.5V102.5" stroke="#913514" stroke-width="7" stroke-miterlimit="10" stroke-linecap="round"/>
<path d="M143.5 88.5V102.5" stroke="#913514" stroke-width="7" stroke-miterlimit="10" stroke-linecap="round"/>
<path d="M182.46 167.267C157 181 118.657 178.294 85.563 167.267C70.461 161.39 49.204 141.275 57.963 122.811C66.349 110.2 86.181 113.698 97.994 118.74C123.354 126.837 144.667 126.837 170.027 118.74C180.817 114.69 202.956 109.089 210.058 122.811C218.818 141.275 197.56 161.389 182.459 167.267H182.46Z" fill="white" stroke="#913514" stroke-width="5" stroke-miterlimit="10"/>
<path d="M166.192 171.873C167.796 171.466 169.406 171.024 171.019 170.563L156.699 122.395C155.056 122.803 153.429 123.167 151.811 123.502L166.192 171.873Z" fill="#913514"/>
<path d="M98.083 118.766L83.875 166.557C84.444 166.81 85.009 167.051 85.563 167.267C86.574 167.604 87.583 167.93 88.589 168.246L102.871 120.208C101.29 119.76 99.695 119.28 98.083 118.766Z" fill="#913514"/>
</g>
<defs>
<clipPath id="clip0_10_85">
<rect width="256" height="256" fill="white"/>
</clipPath>
</defs>
</svg>
