<svg width="256" height="256" viewBox="0 0 256 256" fill="none" xmlns="http://www.w3.org/2000/svg">
<g clip-path="url(#clip0_10_5)">
<path d="M256 0H0V256H256V0Z" fill="#A3EE87"/>
<path d="M128 194.44C132.142 194.44 135.5 191.082 135.5 186.94C135.5 182.798 132.142 179.44 128 179.44C123.858 179.44 120.5 182.798 120.5 186.94C120.5 191.082 123.858 194.44 128 194.44Z" fill="#1F4410"/>
<path d="M135.5 64.295C135.5 60.153 132.142 56.795 128 56.795C123.858 56.795 120.5 60.153 120.5 64.295" stroke="#1F4410" stroke-width="5" stroke-miterlimit="10" stroke-linecap="round"/>
<path d="M129.254 79.44H126.746C113.079 79.44 102 90.5192 102 104.186V136.694C102 150.361 113.079 161.44 126.746 161.44H129.254C142.921 161.44 154 150.361 154 136.694V104.186C154 90.5192 142.921 79.44 129.254 79.44Z" fill="white"/>
<path d="M142.216 108.409C142.216 100.558 135.851 94.193 128 94.193C120.149 94.193 113.784 100.558 113.784 108.409V134.224C113.784 142.075 120.149 148.44 128 148.44C135.851 148.44 142.216 142.075 142.216 134.224V108.409Z" fill="#1F4410"/>
<path d="M146.34 97.618L127.66 111.858L145.116 119.36L146.34 97.618Z" fill="white"/>
</g>
<defs>
<clipPath id="clip0_10_5">
<rect width="256" height="256" fill="white"/>
</clipPath>
</defs>
</svg>
