<svg width="257" height="257" viewBox="0 0 257 257" fill="none" xmlns="http://www.w3.org/2000/svg">
<g clip-path="url(#clip0_10_52)">
<path d="M256.5 0.5H0.5V256.5H256.5V0.5Z" fill="#E86A5C" stroke="#E86A5C" stroke-miterlimit="10"/>
<path d="M123.5 82.5C123.5 71.4543 114.546 62.5 103.5 62.5C92.4543 62.5 83.5 71.4543 83.5 82.5V101.5C83.5 112.546 92.4543 121.5 103.5 121.5C114.546 121.5 123.5 112.546 123.5 101.5V82.5Z" fill="white"/>
<path d="M166.5 82.5C166.5 71.4543 157.546 62.5 146.5 62.5C135.454 62.5 126.5 71.4543 126.5 82.5V101.5C126.5 112.546 135.454 121.5 146.5 121.5C157.546 121.5 166.5 112.546 166.5 101.5V82.5Z" fill="white"/>
<path d="M205.5 128.5H49.5C42.8726 128.5 37.5 133.873 37.5 140.5V146.5C37.5 153.127 42.8726 158.5 49.5 158.5H205.5C212.127 158.5 217.5 153.127 217.5 146.5V140.5C217.5 133.873 212.127 128.5 205.5 128.5Z" fill="#F6BDAC"/>
<path d="M52.5 143.5H201.5" stroke="#913514" stroke-width="5" stroke-miterlimit="10" stroke-linecap="round"/>
<path d="M113.23 80.383C113.23 77.9723 111.276 76.018 108.865 76.018C106.454 76.018 104.5 77.9723 104.5 80.383V103.135C104.5 105.546 106.454 107.5 108.865 107.5C111.276 107.5 113.23 105.546 113.23 103.135V80.383Z" fill="#913514"/>
<path d="M145.23 80.383C145.23 77.9723 143.276 76.018 140.865 76.018C138.454 76.018 136.5 77.9723 136.5 80.383V103.135C136.5 105.546 138.454 107.5 140.865 107.5C143.276 107.5 145.23 105.546 145.23 103.135V80.383Z" fill="#913514"/>
</g>
<defs>
<clipPath id="clip0_10_52">
<rect width="257" height="257" fill="white"/>
</clipPath>
</defs>
</svg>
