<svg width="256" height="256" viewBox="0 0 256 256" fill="none" xmlns="http://www.w3.org/2000/svg">
<g clip-path="url(#clip0_10_72)">
<path d="M256 0H0V256H256V0Z" fill="#D584AC"/>
<path d="M153.24 97.947C152.605 76.706 177.803 64.667 193.365 79.237C197.759 83.384 200.323 89.247 200.445 95.119C199.903 89.264 196.958 83.786 192.536 80.172C183.825 72.725 169.776 73.956 162.739 82.843C159.306 87.005 157.695 92.451 158.231 97.648C158.484 101.07 153.404 101.389 153.24 97.947Z" fill="#401E59"/>
<path d="M94.909 97.648C96.599 79.172 74.831 68.39 60.605 80.172C56.183 83.786 53.237 89.264 52.696 95.119C52.818 89.247 55.382 83.384 59.776 79.237C68.812 70.344 84.577 70.898 93.207 80.355C97.6 84.952 100.106 91.424 99.9 97.948C99.876 99.342 98.714 100.452 97.319 100.407C95.875 100.368 94.755 99.084 94.909 97.648Z" fill="#401E59"/>
<path d="M56.5 144.295C58.962 145.139 61.13 144.01 63.421 143.286C65.681 142.456 67.974 141.563 70.328 140.73C84.462 135.644 103.063 133.417 115.222 144.294C110.104 144.16 105.379 144.069 100.429 144.422C95.72 144.735 91.092 145.288 86.359 145.925C79.945 146.481 60.221 150.797 56.499 144.294L56.5 144.295Z" fill="#401E59"/>
<path d="M201.997 144.295C198.27 150.799 178.561 146.482 172.137 145.926C167.404 145.289 162.776 144.736 158.067 144.423C153.117 144.07 148.395 144.161 143.274 144.295C155.437 133.418 174.031 135.645 188.168 140.731C190.523 141.564 192.815 142.457 195.076 143.286C197.369 144.009 199.532 145.139 201.997 144.295Z" fill="#401E59"/>
<path d="M146.154 163.109C142.648 159.603 134.833 161.735 128.698 167.87C128.694 167.874 128.691 167.878 128.687 167.882C128.683 167.878 128.68 167.874 128.676 167.87C122.541 161.735 114.726 159.604 111.22 163.109C107.714 166.614 109.846 174.43 115.981 180.565C119.234 183.818 122.955 185.931 126.26 186.689C127.001 186.916 127.819 187.011 128.687 186.999C129.555 187.012 130.373 186.917 131.114 186.689C134.419 185.931 138.14 183.818 141.393 180.565C147.528 174.43 149.659 166.615 146.154 163.109Z" fill="#401E59"/>
<path d="M169.5 173C171.433 173 173 171.433 173 169.5C173 167.567 171.433 166 169.5 166C167.567 166 166 167.567 166 169.5C166 171.433 167.567 173 169.5 173Z" fill="#401E59"/>
<path d="M59 131C64.096 134.628 67.471 137.814 71 143C64.116 145.848 56.087 137.894 59 131Z" fill="#401E59"/>
<path d="M63.055 118.738C66.991 125.26 71.244 132.003 75.997 137.922C76.689 138.884 77.479 139.765 78.176 140.949C75.585 140.923 73.045 140.145 70.85 138.783C64.313 134.871 60.13 126.115 63.055 118.738Z" fill="#401E59"/>
<path d="M202.176 131C205.089 137.894 197.06 145.848 190.176 143C193.705 137.815 197.081 134.628 202.176 131Z" fill="#401E59"/>
<path d="M198.121 118.738C201.045 126.114 196.862 134.872 190.326 138.784C188.131 140.146 185.592 140.924 183 140.95C183.696 139.766 184.487 138.884 185.179 137.923C189.926 132.013 194.192 125.248 198.121 118.738Z" fill="#401E59"/>
</g>
<defs>
<clipPath id="clip0_10_72">
<rect width="256" height="256" fill="white"/>
</clipPath>
</defs>
</svg>
